<?xml version="1.0" encoding="utf-8"?>
<!-- Generator: Adobe Illustrator 18.1.1, SVG Export Plug-In . SVG Version: 6.00 Build 0)  -->
<svg version="1.1" id="Arrow_1_" xmlns="http://www.w3.org/2000/svg" xmlns:xlink="http://www.w3.org/1999/xlink" x="0px" y="0px"
	 viewBox="-55 147 500 500" enable-background="new -55 147 500 500" xml:space="preserve">
<g id="Layer_3">
	<g>
		<g>
			<path fill="#78BE20" d="M-35.8,223.9h461.6c10.6,0,19.2,8.7,19.2,19.2s-8.7,19.2-19.2,19.2H-35.8c-10.5,0.1-19.2-8.6-19.2-19.1
				S-46.3,223.9-35.8,223.9z"/>
		</g>
		<g>
			<path fill="#78BE20" d="M425.9,416.2H-35.8c-10.5,0-19.2-8.6-19.2-19.2s8.7-19.2,19.2-19.2h461.6c10.6,0,19.2,8.7,19.2,19.2
				C445.1,407.6,436.4,416.2,425.9,416.2z"/>
		</g>
		<g>
			<path fill="#78BE20" d="M425.9,570.1H-35.8c-10.5,0-19.2-8.7-19.2-19.3s8.7-19.2,19.2-19.2h461.6c10.6,0,19.2,8.7,19.2,19.2
				S436.4,570.1,425.9,570.1z"/>
		</g>
	</g>
</g>
<g id="nyt_x5F_exporter_x5F_info" display="none">
</g>
</svg>
