<?xml version="1.0" encoding="utf-8"?>
<svg version="1.1" id="Capa_1" xmlns="http://www.w3.org/2000/svg" xmlns:xlink="http://www.w3.org/1999/xlink" x="0px" y="0px"
	 viewBox="-241 333 128 128" enable-background="new -241 333 128 128" xml:space="preserve">
<path fill="#78BE20" d="M-119.1,377.2l-34.9-3.3c-2.2-0.2-4.1-1.6-5-3.7l-12.5-30.3c-2-5-9.1-5-11.1,0l-12.4,30.3
	c-0.8,2.1-2.8,3.5-5,3.7l-34.9,3.3c-5.2,0.5-7.3,7-3.4,10.5l26.3,23.1c1.7,1.5,2.4,3.7,1.9,5.9l-7.9,32.4c-1.2,5.1,4.3,9.3,8.9,6.6
	l29.1-17.1c1.9-1.1,4.2-1.1,6.1,0l29.1,17.1c4.6,2.7,10.1-1.4,8.9-6.6l-7.8-32.4c-0.5-2.2,0.2-4.4,1.9-5.9l26.3-23.1
	C-111.7,384.2-113.9,377.7-119.1,377.2z"/>
</svg>
